<svg width="159" height="57" viewBox="0 0 159 57" fill="none" xmlns="http://www.w3.org/2000/svg">
<g clip-path="url(#clip0_334_458)">
<path d="M2.65033 42.953C2.175 42.4803 1.93793 41.8126 1.93793 40.9499V14.4508H5.03897V40.9085H20.9633V43.6627H4.66153C3.79527 43.6627 3.12478 43.4267 2.65004 42.9533L2.65033 42.953Z" fill="#1D2B45"/>
<path d="M43.4246 35.5667H30.5595L27.5422 43.6625H24.3574L35.6301 14.4508H37.0549C37.9768 14.4508 38.6473 15.0076 39.0664 16.1201L45.5199 32.9793H45.5618V33.0628L49.6267 43.6622H46.4418L43.4246 35.5664V35.5667ZM31.5233 32.9796H42.4608L37.013 18.457H36.9711L31.5233 32.9796Z" fill="#1D2B45"/>
<path d="M55.2838 14.4508H69.4899C71.669 14.4508 73.4217 15.0631 74.749 16.287C76.0756 17.5115 76.7396 19.1247 76.7396 21.1278V25.4261C76.7396 27.5686 76.0272 29.3006 74.6024 30.6217C73.1776 31.9434 71.3056 32.6041 68.987 32.6041H58.3848V43.6627H55.2838V14.4508ZM68.9032 29.8495C70.328 29.8495 71.4733 29.4395 72.3395 28.6186C73.2052 27.7983 73.6386 26.706 73.6386 25.3426V21.0443C73.6386 19.9039 73.2541 18.9785 72.486 18.2691C71.7174 17.5596 70.6905 17.2051 69.4058 17.2051H58.3845V29.8495H68.9029H68.9032Z" fill="#1D2B45"/>
<path d="M82.8157 14.4508H102.092V17.2051H85.9167V27.8882H100.542V30.6424H85.9167V43.6625H82.8157V14.4508Z" fill="#1D2B45"/>
<path d="M111.207 42.6612C109.768 41.7711 108.65 40.5265 107.854 38.9261C107.058 37.3269 106.66 35.4835 106.66 33.3969V24.7169C106.66 22.6304 107.058 20.7805 107.854 19.1667C108.651 17.5535 109.782 16.3083 111.249 15.4319C112.715 14.5556 114.413 14.1173 116.341 14.1173H120.783C122.598 14.1173 124.198 14.5072 125.581 15.2857C126.964 16.0649 128.039 17.1636 128.807 18.5825C129.575 20.0013 129.96 21.6288 129.96 23.465H126.943C126.943 21.4899 126.377 19.8969 125.246 18.6867C124.114 17.4765 122.626 16.8712 120.783 16.8712H116.341C114.357 16.8712 112.764 17.5879 111.563 19.0205C110.362 20.4537 109.762 22.3523 109.762 24.7169V33.3969C109.762 35.7619 110.348 37.6605 111.522 39.0934C112.695 40.5265 114.245 41.2423 116.173 41.2423H120.699C122.598 41.2423 124.128 40.5747 125.288 39.2393C126.447 37.9042 127.027 36.1512 127.027 33.9812H130.044C130.044 35.9571 129.653 37.7025 128.871 39.2183C128.088 40.7349 126.991 41.91 125.581 42.7447C124.17 43.579 122.543 43.9963 120.699 43.9963H116.173C114.301 43.9963 112.646 43.5518 111.207 42.6612H111.207Z" fill="#1D2B45"/>
<path d="M140.687 42.8071C139.318 42.0142 138.257 40.8878 137.502 39.4269C136.748 37.9663 136.371 36.2907 136.371 34.3985V14.4508H139.472V34.4817C139.472 36.5128 140.017 38.1476 141.106 39.3852C142.196 40.6234 143.635 41.2421 145.423 41.2421H149.949C151.736 41.2421 153.175 40.6234 154.265 39.3852C155.355 38.1476 155.899 36.5128 155.899 34.4817V14.4508H159V34.3982C159 36.2904 158.623 37.9663 157.869 39.4266C157.115 40.8875 156.053 42.0139 154.684 42.8068C153.315 43.5997 151.736 43.996 149.949 43.996H145.423C143.635 43.996 142.056 43.5997 140.688 42.8068L140.687 42.8071Z" fill="#1D2B45"/>
<path d="M158.953 0H0V4.93825H158.953V0Z" fill="#1D2B45"/>
<path d="M158.953 52.0606H0V57H158.953V52.0606Z" fill="#1D2B45"/>
</g>
<defs>
<clipPath id="clip0_334_458">
<rect width="159" height="57" fill="white"/>
</clipPath>
</defs>
</svg>
